<?xml version="1.0" encoding="utf-8"?>
<!-- Generator: Adobe Illustrator 24.0.1, SVG Export Plug-In . SVG Version: 6.00 Build 0)  -->
<svg version="1.1" id="图层_1" xmlns="http://www.w3.org/2000/svg" xmlns:xlink="http://www.w3.org/1999/xlink" x="0px" y="0px"
	 width="87px" height="100px" viewBox="0 0 87 100" style="enable-background:new 0 0 87 100;" xml:space="preserve">
<style type="text/css">
	.st0{fill:#FFFDFD;}
	.st1{fill:none;}
</style>
<g>
	<path class="st0" d="M75.7,35.3h-4.3c0,0,0-23.6-26.7-23.1c-7.7,0.2-14.5,2.7-20.1,6.7h-8.3C7.3,18.9,0,26.2,0,35.3l0,0h11.9
		C8.5,43.8,7.6,53,11.8,62.8c0,0,5.6,12.9,14.3,16.7h6.3c0,0-8.1-7.4-5-18.9c0,0-5.9-6.6-4.8-14.8h2.9c0,0-1.3,9.5,8.3,17.5l12-16.1
		l41.2,0c0-0.2,0-0.4,0-0.7l0,0C87,40.3,82,35.3,75.7,35.3z M63,33.3c-0.2,1.5-1.5,2.8-3,3c-2.5,0.4-4.6-1.7-4.2-4.2
		c0.2-1.5,1.5-2.8,3-3C61.3,28.8,63.4,30.9,63,33.3z"/>
	<path class="st0" d="M32.4,82.6c19.2,8.1,24.9-9.5,24.9-9.5h3.1c-0.5,5.1-7.3,11.1-7.3,11.1c25.5-7.9,27.8-27.6,27.8-27.6h-41
		C58.2,72.2,32.4,82.6,32.4,82.6z"/>
</g>
<polygon class="st1" points="237.8,93.9 244.7,93.9 244.7,93.9 "/>
</svg>
